<svg width="120" height="29" viewBox="0 0 120 29" fill="none" xmlns="http://www.w3.org/2000/svg">
<path d="M28.9255 14.448C28.9255 22.4271 22.4499 28.8961 14.4692 28.8961C6.48839 28.8961 0 22.4271 0 14.448C0 6.46898 6.47558 0 14.4628 0C22.4499 0 28.9191 6.46898 28.9191 14.448H28.9255Z" fill="white"/>
<path d="M14.4625 28.1667C22.0718 28.1667 28.2463 21.9984 28.2463 14.3969C28.2463 6.79535 22.0782 0.633499 14.4625 0.633499C6.84684 0.633499 0.678711 6.79535 0.678711 14.3969C0.678711 21.9984 6.84684 28.1667 14.4625 28.1667Z" fill="#007CC0"/>
<mask id="mask0_207_4611" style="mask-type:luminance" maskUnits="userSpaceOnUse" x="0" y="0" width="29" height="29">
<path d="M14.4625 28.1667C22.0718 28.1667 28.2463 21.9984 28.2463 14.3969C28.2463 6.79535 22.0782 0.633499 14.4625 0.633499C6.84684 0.633499 0.678711 6.79535 0.678711 14.3969C0.678711 21.9984 6.84684 28.1667 14.4625 28.1667Z" fill="white"/>
</mask>
<g mask="url(#mask0_207_4611)">
<path d="M14.5199 21.045C20.5792 21.045 25.7673 22.7278 27.9963 25.1273C28.7393 23.4189 29.1492 21.5313 29.1492 19.5541C29.1492 11.6519 22.5968 5.25328 14.5199 5.25328C6.44306 5.25328 -0.109375 11.6519 -0.109375 19.5541C-0.109375 21.5313 0.300553 23.4125 1.04995 25.1273C3.26612 22.7278 8.46708 21.045 14.5199 21.045Z" fill="#007CC0"/>
<path d="M14.5137 21.0579C20.5537 21.0579 25.7354 22.728 27.9516 25.1082C28.6946 23.4126 29.1045 21.5378 29.1045 19.5799C29.1045 11.7416 22.5649 5.37497 14.5137 5.37497C6.46242 5.37497 -0.0708008 11.748 -0.0708008 19.5799C-0.0708008 21.5442 0.339127 23.4126 1.08212 25.1082C3.29189 22.728 8.48003 21.0579 14.5201 21.0579H14.5137Z" fill="#007EC2"/>
<path d="M14.5134 21.077C20.5406 21.077 25.7031 22.7342 27.9193 25.0953C28.6623 23.4125 29.0722 21.5569 29.0722 19.6117C29.0722 11.8374 22.5518 5.50282 14.5198 5.50282C6.48775 5.50282 -0.0390625 11.8374 -0.0390625 19.6117C-0.0390625 21.5569 0.370865 23.4125 1.11386 25.0953C3.31722 22.7342 8.49256 21.077 14.5134 21.077Z" fill="#0080C3"/>
<path d="M14.5135 21.0898C20.5215 21.0898 25.6776 22.7343 27.881 25.0762C28.624 23.4061 29.0275 21.5633 29.0275 19.6373C29.0275 11.927 22.5263 5.62442 14.5135 5.62442C6.50071 5.62442 -0.000488281 11.927 -0.000488281 19.6373C-0.000488281 21.5697 0.409439 23.4061 1.14603 25.0762C3.34939 22.7343 8.50551 21.0898 14.5135 21.0898Z" fill="#0082C4"/>
<path d="M14.5132 21.1027C20.5084 21.1027 25.6453 22.7343 27.8487 25.057C28.5853 23.3997 28.9952 21.5761 28.9952 19.663C28.9952 12.0166 22.5068 5.73962 14.5132 5.73962C6.51964 5.73962 0.03125 12.0166 0.03125 19.663C0.03125 21.5761 0.441178 23.3997 1.17777 25.057C3.37472 22.7343 8.51803 21.1027 14.5132 21.1027Z" fill="#0083C5"/>
<path d="M14.5075 21.1219C20.4834 21.1219 25.6139 22.7407 27.8045 25.0442C28.5411 23.3998 28.9446 21.589 28.9446 19.695C28.9446 12.1126 22.4754 5.8676 14.501 5.8676C6.52667 5.8676 0.0703125 12.1062 0.0703125 19.6886C0.0703125 21.589 0.48024 23.3934 1.21042 25.0378C3.40097 22.7343 8.53147 21.1155 14.5075 21.1155V21.1219Z" fill="#0085C8"/>
<path d="M14.5072 21.1347C20.4703 21.1347 25.5816 22.7343 27.7722 25.025C28.5088 23.3934 28.9123 21.6018 28.9123 19.7206C28.9123 12.2022 22.4623 5.9892 14.5072 5.9892C6.55201 5.9892 0.102051 12.1958 0.102051 19.7206C0.102051 21.6018 0.505573 23.3934 1.24216 25.025C3.42631 22.7407 8.544 21.1347 14.5072 21.1347Z" fill="#0088CA"/>
<path d="M14.5073 21.1475C20.4577 21.1475 25.5561 22.7344 27.7403 24.9995C28.4769 23.387 28.874 21.6018 28.874 19.7398C28.874 12.2854 22.4368 6.1044 14.5073 6.1044C6.57777 6.1044 0.140625 12.2854 0.140625 19.7462C0.140625 21.6146 0.544148 23.3934 1.27433 25.0059C3.45207 22.7408 8.55695 21.1539 14.5009 21.1539L14.5073 21.1475Z" fill="#0089CB"/>
<path d="M14.507 21.1667C20.4381 21.1667 25.5302 22.7408 27.7015 24.9867C28.4317 23.387 28.8352 21.621 28.8352 19.7718C28.8352 12.3814 22.4173 6.23238 14.507 6.23238C6.59664 6.23238 0.178711 12.375 0.178711 19.7718C0.178711 21.621 0.582233 23.387 1.31242 24.9867C3.48375 22.7408 8.57582 21.1667 14.507 21.1667Z" fill="#008BCD"/>
<path d="M14.5008 21.1795C20.4191 21.1795 25.4919 22.7408 27.6633 24.9675C28.3935 23.3806 28.7906 21.6274 28.7906 19.7974C28.7906 12.471 22.3919 6.35396 14.5008 6.35396C6.60965 6.35396 0.210938 12.471 0.210938 19.7974C0.210938 21.6338 0.61446 23.3806 1.33824 24.9675C3.50317 22.7408 8.58243 21.1795 14.5008 21.1795Z" fill="#008DD0"/>
<path d="M14.5009 21.1984C20.4 21.1984 25.4665 22.7469 27.625 24.9544C28.3552 23.3804 28.7523 21.6463 28.7523 19.8291C28.7523 12.5603 22.3664 6.48167 14.5009 6.48167C6.63542 6.48167 0.249512 12.5603 0.249512 19.8291C0.249512 21.6463 0.653034 23.3804 1.37681 24.9544C3.53534 22.7469 8.60179 21.1984 14.5009 21.1984Z" fill="#008FD1"/>
<path d="M14.5011 21.2115C20.3874 21.2115 25.4346 22.7472 27.5932 24.9355C28.3169 23.3743 28.7141 21.6594 28.7141 19.855C28.7141 12.6502 22.3474 6.59715 14.4947 6.59715C6.64202 6.59715 0.281738 12.6502 0.281738 19.855C0.281738 21.6594 0.678856 23.3743 1.40263 24.9355C3.56116 22.7472 8.60839 21.2115 14.4947 21.2115H14.5011Z" fill="#0090D3"/>
<path d="M14.4944 21.2244C20.3678 21.2244 25.4023 22.7472 27.5544 24.9163C28.2782 23.3679 28.6753 21.6659 28.6753 19.8806C28.6753 12.7398 22.3278 6.71873 14.4944 6.71873C6.66089 6.71873 0.319824 12.7398 0.319824 19.8806C0.319824 21.6659 0.716942 23.3679 1.44072 24.9163C3.59284 22.7472 8.62726 21.2244 14.4944 21.2244Z" fill="#0093D5"/>
<path d="M14.4945 21.2433C20.3488 21.2433 25.3704 22.747 27.5161 24.8969C28.2399 23.3676 28.637 21.672 28.637 19.906C28.637 12.8291 22.3023 6.84006 14.4945 6.84006C6.68666 6.84006 0.358398 12.8291 0.358398 19.906C0.358398 21.6784 0.755516 23.3676 1.47929 24.8969C3.62501 22.747 8.64662 21.2433 14.5009 21.2433H14.4945Z" fill="#0095D6"/>
<path d="M14.4942 21.2561C20.3357 21.2561 25.3445 22.747 27.4838 24.8777C28.2012 23.3613 28.5983 21.6848 28.5983 19.9316C28.5983 12.9187 22.2828 6.96165 14.4942 6.96165C6.70558 6.96165 0.390137 12.9187 0.390137 19.9316C0.390137 21.6848 0.787254 23.3613 1.50463 24.8777C3.64394 22.747 8.65274 21.2561 14.4942 21.2561Z" fill="#0097D7"/>
<path d="M14.4944 21.2756C20.3166 21.2756 25.3126 22.7537 27.4455 24.8652C28.1629 23.3615 28.56 21.7043 28.56 19.9639C28.56 13.015 22.2574 7.08989 14.4944 7.08989C6.73135 7.08989 0.428711 13.0086 0.428711 19.9639C0.428711 21.7043 0.825828 23.3615 1.5432 24.8652C3.67611 22.7537 8.6721 21.2756 14.4944 21.2756Z" fill="#0098D8"/>
<path d="M14.4877 21.2881C20.2971 21.2881 25.2803 22.7534 27.4068 24.8458C28.1242 23.3549 28.5149 21.7105 28.5149 19.9892C28.5149 13.1043 22.2314 7.20483 14.4877 7.20483C6.74387 7.20483 0.460449 13.1043 0.460449 19.9892C0.460449 21.7169 0.857567 23.3549 1.56853 24.8458C3.69503 22.7534 8.67822 21.2881 14.4877 21.2881Z" fill="#009BD9"/>
<path d="M14.4878 21.301C20.278 21.301 25.2484 22.7534 27.3749 24.8266C28.0923 23.3485 28.483 21.7233 28.483 20.0148C28.483 13.1939 22.2188 7.32643 14.4942 7.32643C6.76963 7.32643 0.499023 13.1939 0.499023 20.0148C0.499023 21.7233 0.889736 23.3485 1.60711 24.8266C3.7272 22.7534 8.69757 21.301 14.4942 21.301H14.4878Z" fill="#009DDA"/>
<path d="M14.488 21.3202C20.2654 21.3202 25.223 22.7598 27.3367 24.8138C28.0476 23.3485 28.4384 21.7361 28.4384 20.0468C28.4384 13.2899 22.1934 7.45441 14.4816 7.45441C6.76984 7.45441 0.53125 13.2835 0.53125 20.0404C0.53125 21.7297 0.921962 23.3421 1.63293 24.8074C3.74662 22.7535 8.71059 21.3138 14.4816 21.3138L14.488 21.3202Z" fill="#00A0DA"/>
<path d="M14.4817 21.333C20.2399 21.333 25.1847 22.7599 27.2984 24.7946C28.0094 23.3421 28.4001 21.7489 28.4001 20.0724C28.4001 13.3795 22.1679 7.57599 14.4817 7.57599C6.7956 7.57599 0.569824 13.3731 0.569824 20.0724C0.569824 21.7489 0.960537 23.3485 1.6715 24.7946C3.77879 22.7599 8.72995 21.333 14.4881 21.333H14.4817Z" fill="#00A2DB"/>
<path d="M14.4814 21.3458C20.2268 21.3458 25.1587 22.7599 27.266 24.7754C27.977 23.3422 28.3613 21.7553 28.3613 20.0981C28.3613 13.4691 22.1483 7.69759 14.4814 7.69759C6.81447 7.69759 0.60791 13.4627 0.60791 20.0981C0.60791 21.7617 0.998622 23.3422 1.70319 24.7754C3.81047 22.7599 8.74241 21.3458 14.4814 21.3458Z" fill="#00A4DC"/>
<path d="M14.4816 21.365C20.2142 21.365 25.1269 22.7599 27.2278 24.7563C27.9388 23.3358 28.3231 21.7681 28.3231 20.1237C28.3231 13.5523 22.1229 7.81918 14.4816 7.81918C6.84029 7.81918 0.640137 13.5523 0.640137 20.1237C0.640137 21.7681 1.03085 23.3358 1.73541 24.7563C3.83629 22.7599 8.75542 21.365 14.4816 21.365Z" fill="#00A6DC"/>
<path d="M14.4813 21.3778C20.1946 21.3778 25.1009 22.7599 27.1954 24.7371C27.9 23.3294 28.2843 21.7746 28.2843 20.1493C28.2843 13.6419 22.1033 7.93439 14.4813 7.93439C6.85916 7.93439 0.678223 13.6483 0.678223 20.1493C0.678223 21.7809 1.06893 23.3294 1.76709 24.7371C3.86157 22.7599 8.76789 21.3778 14.4813 21.3778Z" fill="#00A8DD"/>
<path d="M14.475 21.397C20.1756 21.397 25.0627 22.7663 27.1508 24.7243C27.8553 23.3294 28.2397 21.7938 28.2397 20.1813C28.2397 13.7379 22.0779 8.06236 14.475 8.06236C6.87217 8.06236 0.710449 13.7379 0.710449 20.1749C0.710449 21.7874 1.10116 23.323 1.79932 24.7179C3.88739 22.7599 8.7809 21.3906 14.475 21.3906V21.397Z" fill="#00A9DE"/>
<path d="M14.4752 21.4098C20.1565 21.4098 25.0372 22.7663 27.1189 24.7051C27.8235 23.323 28.2078 21.8002 28.2078 20.2069C28.2078 13.8275 22.0589 8.18394 14.4816 8.18394C6.90434 8.18394 0.749023 13.8275 0.749023 20.2069C0.749023 21.8066 1.13333 23.3294 1.83149 24.7051C3.91315 22.7663 8.79385 21.4098 14.4752 21.4098Z" fill="#00ABDF"/>
<path d="M14.4749 21.429C20.1434 21.429 25.0113 22.7727 27.0802 24.6923C27.7783 23.323 28.1626 21.8194 28.1626 20.2389C28.1626 13.9235 22.0329 8.31192 14.4685 8.31192C6.90406 8.31192 0.780762 13.9171 0.780762 20.2325C0.780762 21.813 1.16507 23.323 1.86323 24.6859C3.93849 22.7663 8.80638 21.4226 14.4685 21.4226L14.4749 21.429Z" fill="#00ADE0"/>
<path d="M14.475 21.4419C20.1244 21.4419 24.9794 22.7728 27.0483 24.6732C27.7465 23.3231 28.1308 21.8258 28.1308 20.2645C28.1308 14.0131 22.0203 8.43352 14.475 8.43352C6.92982 8.43352 0.819336 14.0067 0.819336 20.2581C0.819336 21.8258 1.20364 23.3167 1.8954 24.6668C3.96425 22.7664 8.81933 21.4355 14.4686 21.4355L14.475 21.4419Z" fill="#00AFE1"/>
<path d="M14.4688 21.4544C20.1053 21.4544 24.9476 22.7661 27.01 24.6473C27.7082 23.31 28.0861 21.8319 28.0861 20.2835C28.0861 14.096 21.9884 8.54846 14.4688 8.54846C6.94918 8.54846 0.85791 14.096 0.85791 20.2835C0.85791 21.8319 1.24222 23.31 1.93397 24.6473C3.99642 22.7661 8.83869 21.4544 14.4752 21.4544H14.4688Z" fill="#00B1E2"/>
<path d="M14.4685 21.4739C20.0922 21.4739 24.9152 22.7728 26.9713 24.6348C27.663 23.3103 28.0474 21.845 28.0474 20.3157C28.0474 14.1923 21.9689 8.6767 14.4685 8.6767C6.96811 8.6767 0.889648 14.1859 0.889648 20.3157C0.889648 21.845 1.27396 23.3103 1.96571 24.6348C4.02175 22.7728 8.85121 21.4739 14.4685 21.4739Z" fill="#0AB2E3"/>
<path d="M14.4691 21.4865C20.0736 21.4865 24.8903 22.7726 26.9399 24.6154C27.6317 23.3037 28.0096 21.8576 28.0096 20.3411C28.0096 14.2816 21.9503 8.79164 14.4691 8.79164C6.98795 8.79164 0.928711 14.2752 0.928711 20.3411C0.928711 21.8576 1.30661 23.3037 1.99837 24.6154C4.05441 22.7726 8.86465 21.4865 14.4691 21.4865Z" fill="#16B4E4"/>
<path d="M14.462 21.4993C20.0536 21.4993 24.8511 22.7726 26.8943 24.5962C27.586 23.2973 27.9639 21.864 27.9639 20.3667C27.9639 14.3648 21.9175 8.91324 14.462 8.91324C7.00639 8.91324 0.959961 14.3712 0.959961 20.3667C0.959961 21.864 1.33786 23.3037 2.02962 24.5962C4.07925 22.7726 8.87669 21.4993 14.462 21.4993Z" fill="#23B6E6"/>
<path d="M14.4626 21.5185C20.035 21.5185 24.8261 22.779 26.8629 24.5834C27.5546 23.2973 27.9261 21.8832 27.9261 20.3987C27.9261 14.4608 21.8989 9.04121 14.4626 9.04121C7.02624 9.04121 0.999023 14.4608 0.999023 20.3923C0.999023 21.8768 1.37693 23.2973 2.06227 24.577C4.10551 22.7726 8.89013 21.5121 14.4626 21.5121V21.5185Z" fill="#30B8E7"/>
<path d="M14.4624 21.5505C20.0285 21.5505 24.8067 22.8046 26.8435 24.5962C27.5289 23.3165 27.9068 21.9152 27.9068 20.4371C27.9068 14.5376 21.8859 9.15002 14.4624 9.15002C7.03888 9.15002 1.01807 14.5376 1.01807 20.4371C1.01807 21.9152 1.39597 23.3229 2.08132 24.5962C4.12455 22.8046 8.90277 21.5505 14.4688 21.5505H14.4624Z" fill="#43BBE8"/>
<path d="M14.4622 21.5889C20.0219 21.5889 24.7937 22.8303 26.8305 24.6155C27.5159 23.3485 27.8938 21.9472 27.8938 20.482C27.8938 14.6209 21.8858 9.26523 14.4622 9.26523C7.03871 9.26523 1.03711 14.6209 1.03711 20.482C1.03711 21.9472 1.41501 23.3485 2.10036 24.6155C4.13719 22.8303 8.909 21.5889 14.4686 21.5889H14.4622Z" fill="#50BDEA"/>
<path d="M14.4621 21.621C20.0154 21.621 24.7808 22.8559 26.8112 24.6283C27.4965 23.3678 27.8744 21.9793 27.8744 20.5204C27.8744 14.7041 21.8728 9.37405 14.4621 9.37405C7.0514 9.37405 1.0498 14.7041 1.0498 20.5204C1.0498 21.9793 1.42771 23.3678 2.10665 24.6283C4.14348 22.8559 8.90889 21.621 14.4557 21.621H14.4621Z" fill="#5AC0EC"/>
<path d="M14.4624 21.6594C20.0093 21.6594 24.7683 22.8879 26.7923 24.6411C27.4776 23.387 27.8491 22.0113 27.8491 20.5652C27.8491 14.7873 21.8539 9.48926 14.456 9.48926C7.05812 9.48926 1.06934 14.7809 1.06934 20.5652C1.06934 22.0113 1.44724 23.3934 2.12618 24.6411C4.1566 22.8815 8.91561 21.6594 14.4624 21.6594Z" fill="#64C3EE"/>
<path d="M14.4623 21.6914C19.9963 21.6914 24.7553 22.9136 26.7793 24.654C27.4647 23.4127 27.8362 22.0434 27.8362 20.6037C27.8362 14.8641 21.8474 9.59808 14.4623 9.59808C7.07717 9.59808 1.08838 14.8641 1.08838 20.6037C1.08838 22.0434 1.46628 23.4127 2.14522 24.654C4.17565 22.9072 8.92824 21.6914 14.4623 21.6914Z" fill="#6DC6EF"/>
<path d="M14.4621 21.7296C19.9897 21.7296 24.7359 22.9389 26.7599 24.6729C27.4389 23.438 27.8168 22.0815 27.8168 20.6482C27.8168 14.9471 21.8408 9.71301 14.4621 9.71301C7.0834 9.71301 1.10742 14.9471 1.10742 20.6482C1.10742 22.0751 1.48532 23.438 2.16427 24.6729C4.18828 22.9389 8.94088 21.7296 14.4685 21.7296H14.4621Z" fill="#76C9F1"/>
<path d="M14.4624 21.7616C19.9836 21.7616 24.7234 22.9646 26.7474 24.6858C27.4264 23.4572 27.8043 22.1071 27.8043 20.6931C27.8043 15.0303 21.8347 9.82184 14.4688 9.82184C7.10293 9.82184 1.12695 15.0303 1.12695 20.6931C1.12695 22.1135 1.50486 23.4636 2.17739 24.6922C4.20141 22.971 8.9412 21.768 14.4624 21.768V21.7616Z" fill="#7ECBF1"/>
<path d="M14.4622 21.8C19.977 21.8 24.7104 22.9966 26.728 24.705C27.407 23.4893 27.7849 22.1456 27.7849 20.7379C27.7849 15.1135 21.8217 9.93704 14.4686 9.93704C7.11557 9.93704 1.146 15.1071 1.146 20.7315C1.146 22.1392 1.51749 23.4829 2.19644 24.6986C4.22045 22.9902 8.95384 21.7936 14.4686 21.7936L14.4622 21.8Z" fill="#85CDF1"/>
<path d="M14.4621 21.8321C19.9705 21.8321 24.6975 23.0158 26.7087 24.7178C27.3877 23.5085 27.7591 22.1776 27.7591 20.7763C27.7591 15.1903 21.8024 10.0459 14.4557 10.0459C7.10905 10.0459 1.15869 15.1903 1.15869 20.7763C1.15869 22.1776 1.53019 23.5149 2.20913 24.7178C4.22674 23.0222 8.95372 21.8321 14.4621 21.8321Z" fill="#8CD0F1"/>
<path d="M14.4624 21.8705C19.958 21.8705 24.685 23.0478 26.6962 24.7371C27.3752 23.5341 27.7467 22.216 27.7467 20.8211C27.7467 15.2736 21.8027 10.1611 14.4624 10.1611C7.12217 10.1611 1.17822 15.2736 1.17822 20.8211C1.17822 22.2096 1.54972 23.5405 2.22866 24.7371C4.24627 23.0478 8.96685 21.8705 14.4624 21.8705Z" fill="#94D2F1"/>
<path d="M14.4623 21.9025C19.9515 21.9025 24.6656 23.0735 26.6768 24.7499C27.3494 23.5598 27.7273 22.2417 27.7273 20.866C27.7273 15.3568 21.7897 10.2763 14.4623 10.2763C7.13481 10.2763 1.19727 15.3504 1.19727 20.8596C1.19727 22.2416 1.56876 23.5598 2.2413 24.7499C4.25251 23.0735 8.97308 21.9025 14.4623 21.9025Z" fill="#9AD5F1"/>
<path d="M14.4626 21.9409C19.9454 21.9409 24.6531 23.1055 26.6579 24.7691C27.3305 23.5854 27.7084 22.2801 27.7084 20.9108C27.7084 15.44 21.7772 10.3915 14.4626 10.3915C7.14794 10.3915 1.2168 15.4336 1.2168 20.9044C1.2168 22.2737 1.58829 23.5854 2.26083 24.7691C4.27204 23.1055 8.9798 21.9409 14.4626 21.9409Z" fill="#9ED7F1"/>
<path d="M14.4624 21.9727C19.9388 21.9727 24.6401 23.1245 26.6449 24.7753C27.3175 23.6044 27.689 22.3055 27.689 20.9426C27.689 15.5102 21.7642 10.4937 14.4624 10.4937C7.16058 10.4937 1.23584 15.5166 1.23584 20.9426C1.23584 22.3055 1.60734 23.6044 2.27987 24.7753C4.29108 23.1245 8.99244 21.9727 14.4688 21.9727H14.4624Z" fill="#A5D9F1"/>
<path d="M14.4623 22.0114C19.9323 22.0114 24.6272 23.1568 26.6256 24.7948C27.2982 23.6303 27.6697 22.3377 27.6697 20.9876C27.6697 15.5936 21.7577 10.6091 14.4623 10.6091C7.16687 10.6091 1.24854 15.5936 1.24854 20.9876C1.24854 22.3377 1.62003 23.6303 2.29257 24.7948C4.29737 23.1568 8.99233 22.0114 14.4623 22.0114Z" fill="#ABDBF1"/>
<path d="M14.4621 22.0432C19.9193 22.0432 24.6078 23.1821 26.6062 24.8074C27.2788 23.6492 27.6503 22.3695 27.6503 21.0322C27.6503 15.6766 21.7447 10.7241 14.4621 10.7241C7.1795 10.7241 1.26758 15.6766 1.26758 21.0322C1.26758 22.3759 1.63907 23.6556 2.30521 24.8138C4.31001 23.1821 8.99856 22.0496 14.4557 22.0496L14.4621 22.0432Z" fill="#B0DCF1"/>
<path d="M14.4624 22.0816C19.9132 22.0816 24.5953 23.2077 26.5937 24.8266C27.2663 23.6748 27.6378 22.4079 27.6378 21.077C27.6378 15.7598 21.7387 10.8393 14.4624 10.8393C7.18622 10.8393 1.28711 15.7598 1.28711 21.0706C1.28711 22.4079 1.65861 23.6748 2.32474 24.8202C4.32314 23.2014 9.01168 22.0752 14.4624 22.0752V22.0816Z" fill="#B8DFF0"/>
<path d="M14.4623 22.1136C19.9066 22.1136 24.5824 23.2334 26.5743 24.8394C27.2405 23.7005 27.612 22.44 27.612 21.1155C27.612 15.8366 21.7193 10.9481 14.4559 10.9481C7.19246 10.9481 1.30615 15.8366 1.30615 21.1155C1.30615 22.44 1.67765 23.7005 2.34378 24.8394C4.34218 23.2334 9.01792 22.1136 14.4623 22.1136Z" fill="#BDE1F1"/>
<path d="M14.4621 22.1521C19.9 22.1521 24.5694 23.2654 26.5614 24.8587C27.2275 23.7261 27.599 22.4784 27.599 21.1667C27.599 15.9262 21.7191 11.0633 14.4621 11.0633C7.20509 11.0633 1.3252 15.9198 1.3252 21.1603C1.3252 22.472 1.69669 23.7261 2.36282 24.8587C4.36122 23.2654 9.03055 22.1521 14.4685 22.1521H14.4621Z" fill="#C3E2F1"/>
<path d="M14.4624 22.1841C19.8939 22.1841 24.5505 23.2911 26.5425 24.8715C27.2086 23.7454 27.5801 22.504 27.5801 21.2051C27.5801 16.0031 21.7066 11.1721 14.4624 11.1721C7.21822 11.1721 1.34473 16.0031 1.34473 21.1987C1.34473 22.504 1.71622 23.7454 2.37595 24.8651C4.36794 23.2847 9.03087 22.1841 14.4624 22.1777V22.1841Z" fill="#C8E4F1"/>
<path d="M14.4622 22.2159C19.8874 22.2159 24.5375 23.3164 26.5231 24.8841C27.1892 23.7707 27.5607 22.5358 27.5607 21.2433C27.5607 16.0796 21.6936 11.2807 14.4622 11.2807C7.23086 11.2807 1.36377 16.0796 1.36377 21.2433C1.36377 22.5422 1.73527 23.7707 2.39499 24.8841C4.38699 23.3164 9.04351 22.2223 14.4622 22.2159Z" fill="#CDE6F1"/>
<path d="M14.4626 22.2546C19.8749 22.2546 24.5251 23.3423 26.5106 24.8972C27.1768 23.7902 27.5483 22.5681 27.5483 21.282C27.5483 16.1567 21.6876 11.3898 14.469 11.3898C7.25045 11.3898 1.37695 16.1631 1.37695 21.2884C1.37695 22.5745 1.74205 23.7966 2.40818 24.9036C4.39376 23.3487 9.04388 22.261 14.4626 22.2546Z" fill="#D3E8F3"/>
<path d="M14.4624 22.2863C19.8684 22.2863 24.5121 23.3677 26.4913 24.9098C27.151 23.8092 27.5225 22.5999 27.5225 21.3265C27.5225 16.2397 21.6746 11.5047 14.4624 11.5047C7.25027 11.5047 1.396 16.2461 1.396 21.3265C1.396 22.6063 1.76109 23.8156 2.42722 24.9162C4.41281 23.3741 9.05652 22.2927 14.4624 22.2927V22.2863Z" fill="#D8EAF3"/>
<path d="M14.4623 22.3248C19.8618 22.3248 24.4991 23.3997 26.4783 24.929C27.138 23.8412 27.5095 22.6319 27.5095 21.3714C27.5095 16.3229 21.668 11.6199 14.4623 11.6199C7.25651 11.6199 1.41504 16.3229 1.41504 21.3714C1.41504 22.6383 1.78013 23.8412 2.43986 24.9354C4.41904 23.3997 9.06275 22.3312 14.4623 22.3312V22.3248Z" fill="#DDEDF5"/>
<path d="M14.4621 22.3568C19.8552 22.3568 24.4797 23.4253 26.4589 24.9418C27.1186 23.8605 27.4901 22.6639 27.4901 21.4098C27.4901 16.3997 21.655 11.7287 14.4621 11.7287C7.26915 11.7287 1.43408 16.4061 1.43408 21.4098C1.43408 22.6703 1.79917 23.8605 2.4589 24.9418C4.43808 23.4189 9.06898 22.3568 14.4621 22.3568Z" fill="#E2EFF6"/>
<path d="M14.4624 22.3952C19.8491 22.3952 24.4672 23.451 26.44 24.961C27.0997 23.8861 27.4712 22.7023 27.4712 21.4546C27.4712 16.4829 21.649 11.8439 14.4624 11.8439C7.27587 11.8439 1.45361 16.4893 1.45361 21.4546C1.45361 22.7023 1.81871 23.8861 2.47843 24.961C4.45761 23.451 9.08211 22.3952 14.4688 22.3952H14.4624Z" fill="#E6F1F7"/>
<path d="M14.4623 22.4272C19.8362 22.4272 24.4543 23.4766 26.4271 24.9739C27.0868 23.9117 27.4519 22.7344 27.4519 21.4994C27.4519 16.5661 21.636 11.9591 14.4623 11.9591C7.28856 11.9591 1.46631 16.5661 1.46631 21.4994C1.46631 22.7408 1.8314 23.9117 2.49113 24.9803C4.4639 23.483 9.082 22.4336 14.4623 22.4336V22.4272Z" fill="#EBF3F8"/>
<path d="M14.4626 22.4654C19.8301 22.4654 24.4418 23.5084 26.4082 24.9928C27.0615 23.9371 27.433 22.7725 27.433 21.544C27.433 16.6491 21.6235 12.0741 14.4626 12.0741C7.30169 12.0741 1.48584 16.6491 1.48584 21.5376C1.48584 22.7661 1.85093 23.9371 2.50425 24.9928C4.47703 23.5084 9.08872 22.4654 14.4562 22.4654H14.4626Z" fill="#F0F6FA"/>
<path d="M14.4624 22.5041C19.8235 22.5041 24.4224 23.5343 26.3888 25.0059C27.0421 23.963 27.4136 22.7984 27.4136 21.5827C27.4136 16.7262 21.6105 12.1832 14.4624 12.1832C7.31433 12.1832 1.50488 16.7326 1.50488 21.5827C1.50488 22.8048 1.86997 23.9566 2.5233 25.0059C4.48967 23.5343 9.10135 22.5041 14.4624 22.4977V22.5041Z" fill="#F4F9FB"/>
<path d="M14.4623 22.5359C19.8169 22.5359 24.4094 23.5596 26.3758 25.0249C27.0291 23.9883 27.4006 22.8366 27.4006 21.6273C27.4006 16.8091 21.6104 12.2917 14.4687 12.2917C7.32696 12.2917 1.52393 16.8091 1.52393 21.6273C1.52393 22.8366 1.88902 23.9883 2.54234 25.0249C4.50871 23.5596 9.10759 22.5423 14.4623 22.5359Z" fill="#F7FBFC"/>
<path d="M14.4621 22.5679C19.8104 22.5679 24.3964 23.5853 26.3564 25.0378C27.0097 24.0076 27.3748 22.8686 27.3748 21.6721C27.3748 16.8923 21.591 12.4069 14.4557 12.4069C7.32039 12.4069 1.54297 16.8923 1.54297 21.6657C1.54297 22.8686 1.90806 24.0076 2.56138 25.0378C4.52775 23.5853 9.12022 22.5743 14.4685 22.5679H14.4621Z" fill="#FCFDFE"/>
<path d="M14.4624 22.6063C19.8043 22.6063 24.3839 23.6173 26.3439 25.0506C26.9972 24.0268 27.3623 22.8943 27.3623 21.7105C27.3623 16.9692 21.5849 12.5157 14.4624 12.5157C7.33992 12.5157 1.5625 16.9756 1.5625 21.7105C1.5625 22.9071 1.92759 24.0332 2.57451 25.057C4.53448 23.6173 9.12695 22.6127 14.4624 22.6063Z" fill="white"/>
</g>
<path d="M14.463 17.8712C9.78727 17.8712 5.45101 18.6647 1.87695 20.002C4.02267 24.8137 8.85213 28.1666 14.4694 28.1666C20.0867 28.1666 24.9098 24.8137 27.0619 20.002C23.4814 18.6647 19.1387 17.8712 14.4694 17.8712H14.463Z" fill="#007CC0"/>
<path d="M77.771 18.3575H80.7494C81.0056 18.3831 81.2298 18.4662 81.4091 18.7606C81.55 18.9909 81.5308 19.7715 81.5308 19.7715V25.1336C81.5692 25.6391 81.8126 26.5157 83.6573 26.5861H97.3386V24.6921H85.6749C84.9383 24.7369 84.8679 24.3785 84.8487 23.9306V19.4452C84.8487 18.9973 84.7846 18.5942 84.4067 18.3575H98.8438V16.4763H77.7774V18.3575H77.771Z" fill="white"/>
<path d="M88.8072 14.5184C92.9577 14.5184 96.3268 12.2533 96.3268 8.90039C96.3268 5.54753 92.9577 3.28242 88.8072 3.28242C84.6567 3.28242 81.2876 5.54753 81.2876 8.90039C81.2876 12.2533 84.6567 14.5184 88.8072 14.5184ZM88.8072 5.202C91.081 5.202 92.9257 6.63529 92.9257 8.90039C92.9257 11.1655 91.081 12.6052 88.8072 12.6052C86.5334 12.6052 84.6887 11.1655 84.6887 8.90039C84.6887 6.63529 86.5334 5.202 88.8072 5.202Z" fill="white"/>
<path d="M32.8389 19.1191H41.8124V27.2069H45.2584V19.1191H54.2256V17.1611H32.8389V19.1191Z" fill="white"/>
<path d="M43.5357 15.0559C47.8976 15.0559 51.4332 12.6756 51.4332 9.15639C51.4332 5.63716 47.8976 3.25688 43.5357 3.25688C39.1738 3.25688 35.6382 5.63076 35.6382 9.15639C35.6382 12.682 39.1738 15.0559 43.5357 15.0559ZM43.5357 5.27244C45.9248 5.27244 47.8591 6.77611 47.8591 9.15639C47.8591 11.5367 45.9248 13.0467 43.5357 13.0467C41.1466 13.0467 39.2122 11.5367 39.2122 9.15639C39.2122 6.77611 41.1466 5.27244 43.5357 5.27244Z" fill="white"/>
<path d="M104.813 4.42782V5.11247H100.08V6.98726H102.335C101.15 7.85747 100.4 9.14999 100.4 10.7176C100.4 13.6546 103.02 15.6382 106.248 15.6382C109.476 15.6382 112.096 13.6546 112.096 10.7176C112.096 9.14999 111.347 7.85747 110.162 6.98726H112.256V5.11247H107.766V4.05671C107.766 3.53842 107.606 3.25688 106.889 3.25688H104.544C104.544 3.25688 104.813 3.41685 104.813 4.43422V4.42782ZM103.417 10.7176C103.417 8.83646 104.685 7.64632 106.248 7.64632C107.811 7.64632 109.079 8.83646 109.079 10.7176C109.079 12.5988 107.811 13.789 106.248 13.789C104.685 13.789 103.417 12.5988 103.417 10.7176Z" fill="white"/>
<path d="M112.698 16.3613C108.695 16.3613 105.448 18.5241 105.448 21.7234C105.448 24.9227 108.695 27.0854 112.698 27.0854C116.702 27.0854 119.949 24.929 119.949 21.7234C119.949 18.5177 116.702 16.3613 112.698 16.3613ZM112.698 25.2234C110.546 25.2234 108.81 23.8669 108.81 21.7298C108.81 19.5926 110.553 18.2297 112.698 18.2297C114.844 18.2297 116.586 19.5862 116.586 21.7298C116.586 23.8733 114.844 25.2234 112.698 25.2234Z" fill="white"/>
<path d="M117.284 5.52841V8.22862H116.029V4.41505C116.029 3.90956 115.862 3.64082 115.113 3.64082H113.031C113.031 3.64082 113.313 3.89037 113.313 5.52201V15.3183H116.035V10.1674H117.284V15.3183H120V4.41505C120 3.90956 119.833 3.64082 119.084 3.64082H116.996C116.996 3.64082 117.278 3.91596 117.278 5.52201L117.284 5.52841Z" fill="white"/>
<path d="M71.276 26.5734H74.4978V4.42785C74.4978 3.91596 74.1583 3.64082 73.4025 3.64082H70.9878C70.9878 3.64082 71.276 3.86477 71.276 5.554V26.5734Z" fill="white"/>
<path d="M71.2759 16.8477C71.2759 18.6201 68.5474 18.5817 68.5474 18.5817H60.637C59.9005 18.6265 59.8236 18.2682 59.8044 17.8203V13.0533H66.6322C67.388 13.0533 67.561 12.7782 67.561 12.2663V5.13184C67.561 4.61995 67.388 4.35121 66.6322 4.35121H56.083V6.25159H64.1983V11.1465H56.1535C56.1535 11.1465 56.4417 11.5112 56.4417 12.503V19.0168C56.4801 19.5287 56.7235 20.4053 58.5746 20.4757H67.83C67.83 20.4757 71.4553 20.5844 71.4553 19.4391" fill="white"/>
</svg>
